<svg width="24" height="24" viewBox="0 0 24 24" fill="none" xmlns="http://www.w3.org/2000/svg">
<g id="carbon:skip-forward-outline">
<path id="Vector" d="M8.25 7.50003H6.75V16.5H8.25V7.50003ZM17.6302 16.3965C17.7428 16.3303 17.8362 16.2358 17.901 16.1224C17.9659 16.009 18 15.8807 18 15.75V8.25003C18 8.1194 17.9659 7.99103 17.901 7.87764C17.8362 7.76424 17.7428 7.66975 17.6302 7.60353C17.5176 7.5373 17.3897 7.50163 17.2591 7.50005C17.1284 7.49848 16.9997 7.53104 16.8855 7.59453L10.1355 11.3445C10.0186 11.4095 9.92127 11.5045 9.85348 11.6198C9.78569 11.735 9.74994 11.8663 9.74994 12C9.74994 12.1337 9.78569 12.265 9.85348 12.3803C9.92127 12.4955 10.0186 12.5906 10.1355 12.6555L16.8855 16.4055C16.9997 16.469 17.1284 16.5016 17.2591 16.5C17.3897 16.4984 17.5176 16.4628 17.6302 16.3965ZM16.5 9.52503V14.4758L12.045 12L16.5 9.52503Z" fill="#B5B7C0"/>
<path id="Vector_2" d="M12 22.5C14.0767 22.5 16.1068 21.8842 17.8335 20.7304C19.5602 19.5767 20.906 17.9368 21.7007 16.0182C22.4955 14.0996 22.7034 11.9884 22.2982 9.95156C21.8931 7.91476 20.8931 6.04383 19.4246 4.57538C17.9562 3.10693 16.0852 2.1069 14.0484 1.70176C12.0116 1.29661 9.90044 1.50455 7.98182 2.29927C6.06319 3.09399 4.42332 4.4398 3.26956 6.16652C2.11581 7.89323 1.5 9.9233 1.5 12C1.50317 14.7838 2.61044 17.4527 4.57888 19.4211C6.54733 21.3896 9.2162 22.4968 12 22.5ZM12 3C13.78 3 15.5201 3.52785 17.0001 4.51678C18.4802 5.50571 19.6337 6.91132 20.3149 8.55585C20.9961 10.2004 21.1743 12.01 20.8271 13.7558C20.4798 15.5016 19.6226 17.1053 18.364 18.364C17.1053 19.6226 15.5016 20.4798 13.7558 20.8271C12.01 21.1743 10.2004 20.9961 8.55585 20.3149C6.91131 19.6337 5.5057 18.4802 4.51677 17.0001C3.52784 15.5201 3 13.78 3 12C3.00278 9.61391 3.95188 7.32634 5.6391 5.63911C7.32633 3.95189 9.6139 3.00278 12 3Z" fill="#B5B7C0"/>
</g>
</svg>
