<svg width="24" height="24" viewBox="0 0 24 24" fill="none" xmlns="http://www.w3.org/2000/svg">
<g id="carbon:skip-forward-outline">
<path id="Vector" d="M15.75 7.50003H17.25V16.5H15.75V7.50003ZM6.36975 16.3965C6.25715 16.3303 6.16381 16.2358 6.09896 16.1224C6.0341 16.009 5.99999 15.8807 6 15.75V8.25003C5.99999 8.1194 6.03411 7.99103 6.09897 7.87764C6.16382 7.76424 6.25717 7.66975 6.36977 7.60353C6.48237 7.5373 6.61032 7.50163 6.74094 7.50005C6.87156 7.49848 7.00033 7.53104 7.1145 7.59453L13.8645 11.3445C13.9814 11.4095 14.0787 11.5045 14.1465 11.6198C14.2143 11.735 14.2501 11.8663 14.2501 12C14.2501 12.1337 14.2143 12.265 14.1465 12.3803C14.0787 12.4955 13.9814 12.5906 13.8645 12.6555L7.1145 16.4055C7.00033 16.469 6.87156 16.5016 6.74093 16.5C6.6103 16.4984 6.48235 16.4628 6.36975 16.3965ZM7.5 9.52503V14.4758L11.955 12L7.5 9.52503Z" fill="#B5B7C0"/>
<path id="Vector_2" d="M12 22.5C9.9233 22.5 7.89323 21.8842 6.16652 20.7304C4.4398 19.5767 3.09399 17.9368 2.29927 16.0182C1.50455 14.0996 1.29661 11.9884 1.70176 9.95156C2.1069 7.91476 3.10693 6.04383 4.57538 4.57538C6.04383 3.10693 7.91476 2.1069 9.95156 1.70176C11.9884 1.29661 14.0996 1.50455 16.0182 2.29927C17.9368 3.09399 19.5767 4.4398 20.7304 6.16652C21.8842 7.89323 22.5 9.9233 22.5 12C22.4968 14.7838 21.3896 17.4527 19.4211 19.4211C17.4527 21.3896 14.7838 22.4968 12 22.5ZM12 3C10.22 3 8.47992 3.52785 6.99987 4.51678C5.51983 5.50571 4.36628 6.91132 3.68509 8.55585C3.0039 10.2004 2.82567 12.01 3.17294 13.7558C3.5202 15.5016 4.37737 17.1053 5.63604 18.364C6.89472 19.6226 8.49836 20.4798 10.2442 20.8271C11.99 21.1743 13.7996 20.9961 15.4442 20.3149C17.0887 19.6337 18.4943 18.4802 19.4832 17.0001C20.4722 15.5201 21 13.78 21 12C20.9972 9.61391 20.0481 7.32634 18.3609 5.63911C16.6737 3.95189 14.3861 3.00278 12 3Z" fill="#B5B7C0"/>
</g>
</svg>
