<svg width="12" height="11" viewBox="0 0 12 11" fill="none" xmlns="http://www.w3.org/2000/svg">
<g id="volume">
<path id="Vector" d="M1.84479 4.39941V6.15271C1.84479 6.39378 2.04203 6.59103 2.28311 6.59103H3.59809L5.04017 8.03312C5.31632 8.30926 5.78971 8.11202 5.78971 7.72191V2.82582C5.78971 2.43571 5.31632 2.23847 5.04017 2.51461L3.59809 3.96108H2.28311C2.04203 3.96108 1.84479 4.15833 1.84479 4.39941ZM7.76217 5.27606C7.76217 4.50022 7.31508 3.83397 6.66636 3.50961V7.03812C7.31508 6.71815 7.76217 6.05189 7.76217 5.27606ZM6.66636 1.96671V2.05437C6.66636 2.22093 6.77594 2.36558 6.92935 2.42695C8.06023 2.87842 8.85798 3.98738 8.85798 5.27606C8.85798 6.56473 8.06023 7.67369 6.92935 8.12517C6.77156 8.18653 6.66636 8.33118 6.66636 8.49774V8.58541C6.66636 8.86155 6.9425 9.05442 7.19673 8.95798C8.68265 8.39255 9.73463 6.95922 9.73463 5.27606C9.73463 3.59289 8.68265 2.15957 7.19673 1.59413C6.9425 1.49332 6.66636 1.69056 6.66636 1.96671Z" fill="#F0FBFF"/>
</g>
</svg>
