<svg width="11" height="11" viewBox="0 0 11 11" fill="none" xmlns="http://www.w3.org/2000/svg">
<g id="ph:file-audio-bold">
<rect x="0.445214" y="0.929833" width="9.74802" height="9.74802" rx="1.33519" stroke="#167DB7" stroke-width="0.178025"/>
<path id="Vector" d="M4.10168 5.68395C4.01665 5.64871 3.92308 5.63947 3.8328 5.65742C3.74253 5.67536 3.6596 5.71968 3.59452 5.78476L2.79927 6.57923H2.06257C1.93917 6.57923 1.82083 6.62825 1.73357 6.71551C1.64631 6.80277 1.59729 6.92112 1.59729 7.04452V8.59546C1.59729 8.71886 1.64631 8.83721 1.73357 8.92447C1.82083 9.01172 1.93917 9.06074 2.06257 9.06074H2.79927L3.59336 9.85483C3.65834 9.92035 3.74135 9.96507 3.83181 9.98329C3.92228 10.0015 4.01612 9.99243 4.10141 9.95719C4.1867 9.92194 4.25958 9.86213 4.31079 9.78535C4.362 9.70858 4.38922 9.61831 4.38899 9.52603V6.11395C4.38901 6.02189 4.36172 5.9319 4.31058 5.85536C4.25943 5.77881 4.18673 5.71916 4.10168 5.68395ZM3.45842 8.40159L3.32233 8.26511C3.23481 8.1783 3.11641 8.12977 2.99314 8.13018H2.52786V7.5098H2.99314C3.05426 7.50985 3.11479 7.49785 3.17127 7.4745C3.22776 7.45115 3.27909 7.4169 3.32233 7.3737L3.45842 7.23838V8.40159ZM6.56031 7.81999C6.5601 8.12052 6.48147 8.4158 6.33221 8.67665C6.18296 8.93749 5.96822 9.15489 5.70923 9.30734C5.65637 9.34178 5.59706 9.36511 5.53491 9.37591C5.47275 9.38672 5.40905 9.38477 5.34767 9.37018C5.28629 9.3556 5.22852 9.32868 5.17787 9.29107C5.12722 9.25347 5.08474 9.20595 5.05303 9.15141C5.02131 9.09688 5.00102 9.03646 4.99338 8.97384C4.98574 8.91122 4.99092 8.8477 5.00859 8.78714C5.02627 8.72657 5.05608 8.67024 5.0962 8.62156C5.13633 8.57288 5.18594 8.53287 5.24201 8.50396C5.3607 8.43355 5.45903 8.33346 5.52733 8.21354C5.59562 8.09362 5.63154 7.95799 5.63154 7.81999C5.63154 7.68198 5.59562 7.54635 5.52733 7.42643C5.45903 7.30651 5.3607 7.20643 5.24201 7.13602C5.18785 7.10595 5.14023 7.06536 5.10196 7.01664C5.0637 6.96792 5.03554 6.91205 5.01915 6.85231C5.00277 6.79256 4.99848 6.73014 5.00653 6.66872C5.01459 6.60729 5.03483 6.54809 5.06608 6.4946C5.09732 6.4411 5.13893 6.39438 5.18847 6.35718C5.23801 6.31998 5.29448 6.29304 5.35456 6.27796C5.41465 6.26287 5.47715 6.25993 5.53838 6.26932C5.59962 6.27871 5.65836 6.30024 5.71117 6.33263C5.9698 6.48533 6.18415 6.70283 6.33306 6.96366C6.48197 7.22449 6.5603 7.51964 6.56031 7.81999ZM8.75063 3.92363L6.57931 1.75231C6.53607 1.70911 6.48474 1.67486 6.42826 1.65151C6.37177 1.62816 6.31124 1.61616 6.25012 1.61621H2.52786C2.32219 1.61621 2.12494 1.69791 1.97952 1.84334C1.83409 1.98877 1.75238 2.18602 1.75238 2.39168V5.18338C1.75238 5.30678 1.80141 5.42513 1.88866 5.51239C1.97592 5.59965 2.09427 5.64867 2.21767 5.64867C2.34107 5.64867 2.45942 5.59965 2.54667 5.51239C2.63393 5.42513 2.68295 5.30678 2.68295 5.18338V2.54678H5.62975V4.40791C5.62975 4.53131 5.67877 4.64966 5.76602 4.73692C5.85328 4.82417 5.97163 4.87319 6.09503 4.87319H7.95616V9.06074H7.33578C7.21238 9.06074 7.09404 9.10977 7.00678 9.19702C6.91952 9.28428 6.8705 9.40263 6.8705 9.52603C6.8705 9.64943 6.91952 9.76777 7.00678 9.85503C7.09404 9.94229 7.21238 9.99131 7.33578 9.99131H8.11126C8.31692 9.99131 8.51417 9.90961 8.6596 9.76418C8.80503 9.61875 8.88673 9.42151 8.88673 9.21584V4.25282C8.88678 4.1917 8.87478 4.13117 8.85143 4.07468C8.82808 4.0182 8.79383 3.96687 8.75063 3.92363ZM6.56031 3.05083L7.45211 3.94263H6.56031V3.05083Z" fill="#167DB7"/>
</g>
</svg>
