<svg width="11" height="11" viewBox="0 0 11 11" fill="none" xmlns="http://www.w3.org/2000/svg">
<g id="basil:document-solid">
<rect x="0.257347" y="0.929833" width="9.74802" height="9.74802" rx="1.33519" stroke="#167DB7" stroke-width="0.178025"/>
<path id="Vector" fill-rule="evenodd" clip-rule="evenodd" d="M6.06176 1.87488C6.06176 1.84746 6.05086 1.82116 6.03147 1.80177C6.01208 1.78238 5.98578 1.77148 5.95836 1.77148H3.06326C2.76162 1.77148 2.47232 1.89131 2.25903 2.10461C2.04573 2.31791 1.9259 2.6072 1.9259 2.90884V8.69904C1.9259 9.00068 2.04573 9.28998 2.25903 9.50327C2.47232 9.71657 2.76162 9.8364 3.06326 9.8364H7.19911C7.50076 9.8364 7.79005 9.71657 8.00335 9.50327C8.21665 9.28998 8.33647 9.00068 8.33647 8.69904V4.62398C8.33647 4.59656 8.32558 4.57026 8.30619 4.55087C8.2868 4.53148 8.2605 4.52059 8.23308 4.52059H6.37194C6.28968 4.52059 6.21078 4.4879 6.15261 4.42973C6.09444 4.37156 6.06176 4.29266 6.06176 4.2104V1.87488ZM6.37194 5.90734C6.45421 5.90734 6.53311 5.94002 6.59128 5.99819C6.64945 6.05636 6.68213 6.13526 6.68213 6.21753C6.68213 6.29979 6.64945 6.37869 6.59128 6.43686C6.53311 6.49503 6.45421 6.52771 6.37194 6.52771H3.89043C3.80817 6.52771 3.72927 6.49503 3.6711 6.43686C3.61292 6.37869 3.58024 6.29979 3.58024 6.21753C3.58024 6.13526 3.61292 6.05636 3.6711 5.99819C3.72927 5.94002 3.80817 5.90734 3.89043 5.90734H6.37194ZM6.37194 7.56168C6.45421 7.56168 6.53311 7.59436 6.59128 7.65253C6.64945 7.7107 6.68213 7.7896 6.68213 7.87187C6.68213 7.95413 6.64945 8.03303 6.59128 8.0912C6.53311 8.14937 6.45421 8.18205 6.37194 8.18205H3.89043C3.80817 8.18205 3.72927 8.14937 3.6711 8.0912C3.61292 8.03303 3.58024 7.95413 3.58024 7.87187C3.58024 7.7896 3.61292 7.7107 3.6711 7.65253C3.72927 7.59436 3.80817 7.56168 3.89043 7.56168H6.37194Z" fill="#167DB7"/>
<path id="Vector_2" d="M6.68237 2.0089C6.68237 1.9328 6.7622 1.88441 6.82134 1.93198C6.87138 1.97251 6.91646 2.01966 6.95493 2.07342L8.20106 3.80924C8.22918 3.84894 8.19858 3.90023 8.14977 3.90023H6.78577C6.75835 3.90023 6.73205 3.88933 6.71266 3.86994C6.69327 3.85055 6.68237 3.82425 6.68237 3.79683V2.0089Z" fill="#167DB7"/>
</g>
</svg>
