<svg width="11" height="11" viewBox="0 0 11 11" fill="none" xmlns="http://www.w3.org/2000/svg">
<g id="bxs:image">
<rect x="0.821312" y="0.929833" width="9.74802" height="9.74802" rx="1.33519" stroke="#167DB7" stroke-width="0.178025"/>
<path id="Vector" d="M9.00337 2.49512H2.38601C1.92982 2.49512 1.55884 2.8661 1.55884 3.32229V8.28531C1.55884 8.74149 1.92982 9.11248 2.38601 9.11248H9.00337C9.45956 9.11248 9.83054 8.74149 9.83054 8.28531V3.32229C9.83054 2.8661 9.45956 2.49512 9.00337 2.49512ZM3.41997 3.73587C3.58451 3.73587 3.7423 3.80123 3.85864 3.91758C3.97499 4.03392 4.04035 4.19172 4.04035 4.35625C4.04035 4.52079 3.97499 4.67858 3.85864 4.79492C3.7423 4.91127 3.58451 4.97663 3.41997 4.97663C3.25544 4.97663 3.09764 4.91127 2.9813 4.79492C2.86495 4.67858 2.79959 4.52079 2.79959 4.35625C2.79959 4.19172 2.86495 4.03392 2.9813 3.91758C3.09764 3.80123 3.25544 3.73587 3.41997 3.73587ZM5.69469 7.87173H2.79959L4.45393 5.8038L5.07431 6.63097L6.31507 4.97663L8.58979 7.87173H5.69469Z" fill="#167DB7"/>
</g>
</svg>
