<svg width="7" height="5" viewBox="0 0 7 5" fill="none" xmlns="http://www.w3.org/2000/svg">
<path id="Vector" d="M4.65199 4.94008H0.760879C0.639468 4.94008 0.523031 4.89506 0.437181 4.81493C0.351331 4.73481 0.303101 4.62613 0.303101 4.51282V1.09474C0.303101 0.981424 0.351331 0.872749 0.437181 0.792622C0.523031 0.712495 0.639468 0.66748 0.760879 0.66748H4.65199C4.7734 0.66748 4.88984 0.712495 4.97569 0.792622C5.06154 0.872749 5.10977 0.981424 5.10977 1.09474V1.96208L6.35035 1.13533C6.38451 1.11263 6.4247 1.09912 6.46653 1.09629C6.50835 1.09345 6.55021 1.10139 6.58753 1.11925C6.62485 1.13711 6.65619 1.16419 6.67814 1.19754C6.70009 1.23089 6.7118 1.26923 6.71199 1.30837V4.29919C6.7118 4.33833 6.70009 4.37667 6.67814 4.41002C6.65619 4.44337 6.62485 4.47045 6.58753 4.48831C6.55021 4.50616 6.50835 4.51411 6.46653 4.51127C6.4247 4.50843 6.38451 4.49493 6.35035 4.47223L5.10977 3.64548V4.51282C5.10977 4.62613 5.06154 4.73481 4.97569 4.81493C4.88984 4.89506 4.7734 4.94008 4.65199 4.94008Z" fill="#167DB7"/>
</svg>
