<svg width="24" height="24" viewBox="0 0 24 24" fill="none" xmlns="http://www.w3.org/2000/svg">
<g id="eos-icons:templates">
<path id="Vector" d="M19 2H5C4.46997 2.00132 3.96203 2.21246 3.58724 2.58724C3.21246 2.96203 3.00132 3.46997 3 4V20C3.00132 20.53 3.21246 21.038 3.58724 21.4128C3.96203 21.7875 4.46997 21.9987 5 22H19C19.53 21.9987 20.038 21.7875 20.4128 21.4128C20.7875 21.038 20.9987 20.53 21 20V4C20.9987 3.46997 20.7875 2.96203 20.4128 2.58724C20.038 2.21246 19.53 2.00132 19 2ZM19 13.152V18.848L14 16L19 13.152ZM12 14.846L7 12H17L12 14.846ZM5 4H19V6H5V4ZM5 8H13V10H5V8ZM10 16L5 18.848V13.144L10 16ZM12 17.15L17 20H7L12 17.15Z" fill="#D1F4FF"/>
</g>
</svg>
