<svg width="26" height="26" viewBox="0 0 26 26" fill="none" xmlns="http://www.w3.org/2000/svg">
<g id="bx:link">
<path id="Vector" d="M9.33674 12.2679C10.5108 11.0939 12.5583 11.0939 13.7324 12.2679L14.465 13.0005L15.9302 11.5353L15.1976 10.8027C14.2204 9.82454 12.9189 9.28467 11.5346 9.28467C10.1502 9.28467 8.84868 9.82454 7.87153 10.8027L5.67268 13.0005C4.70359 13.9735 4.15948 15.2908 4.15948 16.6641C4.15948 18.0373 4.70359 19.3546 5.67268 20.3276C6.15325 20.8091 6.72428 21.1909 7.35292 21.4508C7.98157 21.7108 8.65542 21.844 9.3357 21.8426C10.0162 21.8441 10.6902 21.711 11.319 21.451C11.9479 21.1911 12.5191 20.8093 12.9998 20.3276L13.7324 19.595L12.2672 18.1298L11.5346 18.8624C10.9506 19.4437 10.1602 19.7701 9.33622 19.7701C8.51225 19.7701 7.72183 19.4437 7.13789 18.8624C6.55605 18.2787 6.22934 17.4882 6.22934 16.6641C6.22934 15.8399 6.55605 15.0494 7.13789 14.4658L9.33674 12.2679Z" fill="white"/>
<path id="Vector_2" d="M12.9978 5.67359L12.2652 6.4062L13.7304 7.87141L14.463 7.1388C15.047 6.55747 15.8374 6.23111 16.6613 6.23111C17.4853 6.23111 18.2757 6.55747 18.8597 7.1388C19.4415 7.72247 19.7682 8.513 19.7682 9.33713C19.7682 10.1613 19.4415 10.9518 18.8597 11.5355L16.6608 13.7333C15.4868 14.9073 13.4392 14.9073 12.2652 13.7333L11.5326 13.0007L10.0674 14.4659L10.8 15.1985C11.7771 16.1767 13.0786 16.7166 14.463 16.7166C15.8474 16.7166 17.1489 16.1767 18.126 15.1985L20.3249 13.0007C21.294 12.0277 21.8381 10.7104 21.8381 9.33713C21.8381 7.96388 21.294 6.64657 20.3249 5.67359C19.3524 4.70349 18.0349 4.15869 16.6613 4.15869C15.2878 4.15869 13.9702 4.70349 12.9978 5.67359Z" fill="white"/>
</g>
</svg>
