<svg width="18" height="18" viewBox="0 0 18 18" fill="none" xmlns="http://www.w3.org/2000/svg">
<g id="fluent:text-16-filled">
<path id="Vector" d="M3.06757 3.33474C3.06757 3.12009 3.15284 2.91423 3.30462 2.76244C3.4564 2.61066 3.66226 2.52539 3.87692 2.52539H13.5891C13.8038 2.52539 14.0097 2.61066 14.1614 2.76244C14.3132 2.91423 14.3985 3.12009 14.3985 3.33474V4.95345C14.3985 5.1681 14.3132 5.37396 14.1614 5.52575C14.0097 5.67753 13.8038 5.7628 13.5891 5.7628C13.3745 5.7628 13.1686 5.67753 13.0169 5.52575C12.8651 5.37396 12.7798 5.1681 12.7798 4.95345V4.1441H9.54239V13.8563H10.8913C11.106 13.8563 11.3118 13.9416 11.4636 14.0934C11.6154 14.2452 11.7007 14.451 11.7007 14.6657C11.7007 14.8803 11.6154 15.0862 11.4636 15.238C11.3118 15.3898 11.106 15.475 10.8913 15.475H6.57476C6.36011 15.475 6.15424 15.3898 6.00246 15.238C5.85068 15.0862 5.76541 14.8803 5.76541 14.6657C5.76541 14.451 5.85068 14.2452 6.00246 14.0934C6.15424 13.9416 6.36011 13.8563 6.57476 13.8563H7.92368V4.1441H4.68627V4.95345C4.68627 5.1681 4.601 5.37396 4.44922 5.52575C4.29743 5.67753 4.09157 5.7628 3.87692 5.7628C3.66226 5.7628 3.4564 5.67753 3.30462 5.52575C3.15284 5.37396 3.06757 5.1681 3.06757 4.95345V3.33474Z" fill="#167DB7"/>
</g>
</svg>
