<svg width="26" height="26" viewBox="0 0 26 26" fill="none" xmlns="http://www.w3.org/2000/svg">
<g id="fluent:color-background-24-filled">
<path id="Vector" d="M2.20825 13.4467V18.9352C2.20825 19.6507 2.49248 20.3369 2.99843 20.8428C3.50437 21.3488 4.19058 21.633 4.90609 21.633H21.0931C21.8087 21.633 22.4949 21.3488 23.0008 20.8428C23.5067 20.3369 23.791 19.6507 23.791 18.9352V7.06465C23.791 6.34913 23.5067 5.66293 23.0008 5.15698C22.4949 4.65104 21.8087 4.3668 21.0931 4.3668H11.4413L14.055 6.98047C14.4831 7.40822 14.7827 7.94738 14.9198 8.53678C15.057 9.12618 15.0262 9.74222 14.8309 10.315C15.241 10.3603 15.6403 10.5416 15.9532 10.8557L15.9564 10.8578L15.9597 10.8621L15.9705 10.8718L15.9921 10.8934C16.1074 11.0118 16.2193 11.1334 16.3277 11.2582C16.5349 11.4913 16.8133 11.8247 17.096 12.2186C17.3766 12.6071 17.6841 13.0905 17.927 13.6215C18.1644 14.1373 18.3953 14.815 18.3953 15.5628C18.3953 17.5646 16.891 19.4747 14.6183 19.4747C12.3457 19.4747 10.8413 17.5646 10.8413 15.5628C10.8413 15.2499 10.8813 14.9488 10.946 14.6672L9.47623 16.1369C9.1756 16.4376 8.81869 16.6761 8.42588 16.8389C8.03306 17.0016 7.61203 17.0854 7.18685 17.0854C6.76166 17.0854 6.34063 17.0016 5.94782 16.8389C5.555 16.6761 5.19809 16.4376 4.89746 16.1369L2.20825 13.4467ZM12.2895 14.0726C12.0867 14.5139 11.9205 15.0308 11.9205 15.5628C11.9205 17.0628 13.0309 18.3956 14.6183 18.3956C16.2046 18.3956 17.3162 17.0628 17.3162 15.5628C17.3162 15.0308 17.15 14.5139 16.9471 14.0726C16.7437 13.6427 16.5002 13.2329 16.2198 12.8488C16.0017 12.5448 15.7679 12.2523 15.5194 11.9726L15.1903 11.6186C15.0385 11.467 14.8328 11.3819 14.6183 11.3819C14.4038 11.3819 14.1981 11.467 14.0464 11.6186L14.0399 11.624C13.9773 11.6909 13.809 11.8679 13.7162 11.9726C13.5273 12.1873 13.2726 12.4905 13.0158 12.8488C12.7357 13.233 12.4926 13.6427 12.2895 14.0726ZM14.6183 13.4143C14.7118 13.5308 14.8072 13.6567 14.9043 13.792C15.1223 14.0952 15.3273 14.4244 15.4762 14.7481C15.6273 15.0772 15.6975 15.3524 15.6975 15.5628C15.6975 16.3085 15.1784 16.7769 14.6183 16.7769C14.0572 16.7769 13.5392 16.3085 13.5392 15.5628C13.5392 15.3535 13.6082 15.0772 13.7604 14.7481C13.9082 14.4244 14.1133 14.0952 14.3313 13.792C14.4291 13.6567 14.5248 13.5308 14.6183 13.4143ZM7.33415 1.12939C7.11949 1.12939 6.91363 1.21467 6.76185 1.36645C6.61007 1.51823 6.52479 1.72409 6.52479 1.93875V3.83371L6.42444 3.9276L1.84566 8.50637C1.44104 8.91111 1.21375 9.45998 1.21375 10.0323C1.21375 10.6046 1.44104 11.1534 1.84566 11.5582L5.66041 15.374C5.86083 15.5745 6.0988 15.7336 6.36071 15.8421C6.62262 15.9506 6.90334 16.0065 7.18685 16.0065C7.47035 16.0065 7.75107 15.9506 8.01298 15.8421C8.27489 15.7336 8.51286 15.5745 8.71328 15.374L13.2921 10.7952C13.6967 10.3905 13.924 9.84162 13.924 9.26932C13.924 8.69703 13.6967 8.14816 13.2921 7.74342L9.47623 3.9276C9.11877 3.56999 8.64709 3.34924 8.1435 3.30386V1.93875C8.1435 1.72409 8.05823 1.51823 7.90645 1.36645C7.75466 1.21467 7.5488 1.12939 7.33415 1.12939ZM6.52479 6.11609V6.79486C6.52479 7.00952 6.61007 7.21538 6.76185 7.36716C6.91363 7.51894 7.11949 7.60421 7.33415 7.60421C7.5488 7.60421 7.75466 7.51894 7.90645 7.36716C8.05823 7.21538 8.1435 7.00952 8.1435 6.79486V4.94954C8.21402 4.97693 8.278 5.01884 8.33127 5.07256L12.1471 8.88731C12.2442 8.98443 12.296 9.10853 12.3036 9.23479H3.40609L6.52479 6.11609ZM6.80537 14.229L3.42983 10.8535H10.9449L7.56832 14.229C7.46714 14.3302 7.32992 14.387 7.18685 14.387C7.04377 14.387 6.90655 14.3302 6.80537 14.229Z" fill="white"/>
</g>
</svg>
