<svg width="28" height="28" viewBox="0 0 28 28" fill="none" xmlns="http://www.w3.org/2000/svg">
<g id="hugeicons:file-audio">
<g id="Group">
<path id="Vector" d="M23.9313 21.8173V18.3232C23.9313 16.3709 23.9313 15.3953 23.3353 15.1525C22.7394 14.9096 22.0374 15.5994 20.6347 16.9801C19.9041 17.6985 19.4792 17.8531 18.4594 17.8531C17.5545 17.8531 17.1031 17.8531 16.7786 18.0672C16.112 18.5042 16.2058 19.3672 16.2058 20.0703C16.2058 20.7733 16.112 21.6363 16.7786 22.0734C17.1031 22.2875 17.5556 22.2875 18.4594 22.2875C19.4792 22.2875 19.9041 22.442 20.6336 23.1604C22.0374 24.5411 22.7394 25.232 23.3353 24.9881C23.9313 24.7453 23.9313 23.7697 23.9313 21.8173Z" stroke="white" stroke-width="1.65546" stroke-linecap="round" stroke-linejoin="round"/>
<path id="Vector_2" d="M13.9987 25.0366H12.5937C8.99587 25.0366 7.19473 25.0366 5.94541 24.1559C5.58988 23.9066 5.27208 23.6074 5.0018 23.2675C4.06592 22.091 4.06592 20.398 4.06592 17.0099V14.2011C4.06592 10.931 4.06592 9.29544 4.58352 7.98984C5.41567 5.88961 7.17487 4.23416 9.40642 3.45057C10.7926 2.96387 12.5286 2.96387 16.0051 2.96387C17.9894 2.96387 18.9827 2.96387 19.7751 3.24198C21.0498 3.69006 22.0552 4.63588 22.5309 5.83553C22.8278 6.58159 22.8278 7.51638 22.8278 9.38484V11.793" stroke="white" stroke-width="1.65546" stroke-linecap="round" stroke-linejoin="round"/>
<path id="Vector_3" d="M4.06592 14.0003C4.06592 13.0247 4.45347 12.0891 5.1433 11.3992C5.83314 10.7094 6.76877 10.3218 7.74435 10.3218C8.47937 10.3218 9.34572 10.4498 10.0598 10.2589C10.3718 10.1749 10.6562 10.0104 10.8846 9.78186C11.113 9.55329 11.2773 9.2687 11.361 8.95662C11.5519 8.24257 11.4239 7.37621 11.4239 6.64119C11.4242 5.6658 11.8118 4.73046 12.5017 4.04086C13.1915 3.35126 14.1269 2.96387 15.1023 2.96387" stroke="white" stroke-width="1.65546" stroke-linecap="round" stroke-linejoin="round"/>
</g>
</g>
</svg>
