<svg width="26" height="26" viewBox="0 0 26 26" fill="none" xmlns="http://www.w3.org/2000/svg">
<g id="material-symbols-light:shadow">
<path id="Vector" d="M5.03044 22.7125C4.53332 22.7125 4.11857 22.5464 3.7862 22.214C3.45383 21.8816 3.28728 21.4669 3.28656 20.9697V9.34744C3.28656 8.85104 3.45311 8.43665 3.7862 8.10427C4.11929 7.7719 4.53368 7.60535 5.02937 7.60463H7.18764V5.03197C7.18764 4.53485 7.35419 4.1201 7.68728 3.78773C8.02037 3.45535 8.43512 3.28881 8.93152 3.28809H20.9682C21.4646 3.28809 21.8794 3.45463 22.2125 3.78773C22.5456 4.12082 22.7117 4.53521 22.711 5.03089V17.0687C22.711 17.5651 22.5448 17.9798 22.2125 18.3129C21.8801 18.646 21.4653 18.8125 20.9682 18.8125H18.3945V20.9708C18.3945 21.4672 18.2283 21.8816 17.8959 22.214C17.5635 22.5464 17.1488 22.7125 16.6517 22.7125H5.03044ZM8.93152 17.7323H20.9682C21.1337 17.7323 21.2858 17.6629 21.4247 17.5241C21.5635 17.3852 21.6326 17.2334 21.6319 17.0687V5.03089C21.6319 4.86542 21.5628 4.71327 21.4247 4.57442C21.2866 4.43557 21.1344 4.3665 20.9682 4.36722H8.93044C8.76498 4.36722 8.61318 4.43629 8.47505 4.57442C8.33692 4.71255 8.26785 4.8647 8.26785 5.03089V17.0687C8.26785 17.2348 8.33692 17.387 8.47505 17.5251C8.61318 17.6633 8.76534 17.7316 8.93152 17.7323Z" fill="white"/>
</g>
</svg>
