<svg width="26" height="26" viewBox="0 0 26 26" fill="none" xmlns="http://www.w3.org/2000/svg">
<g id="mdi:format-colour-fill">
<path id="Vector" d="M20.2689 16.4101C20.2689 16.4101 18.1107 18.7518 18.1107 20.1871C18.1107 20.7595 18.3381 21.3084 18.7428 21.7132C19.1476 22.1179 19.6965 22.3453 20.2689 22.3453C20.8414 22.3453 21.3903 22.1179 21.7951 21.7132C22.1998 21.3084 22.4272 20.7595 22.4272 20.1871C22.4272 18.7518 20.2689 16.4101 20.2689 16.4101ZM5.38765 14.7914L10.5567 9.6223L15.7258 14.7914M17.6359 13.6475L7.98837 4L6.46679 5.52158L9.03513 8.08993L3.47758 13.6475C2.84089 14.2518 2.84089 15.2986 3.47758 15.9353L9.41283 21.8705C9.72578 22.1835 10.1466 22.3453 10.5567 22.3453C10.9668 22.3453 11.3877 22.1835 11.7006 21.8705L17.6359 15.9353C18.2725 15.2986 18.2725 14.2518 17.6359 13.6475Z" fill="white"/>
</g>
</svg>
