<svg width="26" height="26" viewBox="0 0 26 26" fill="none" xmlns="http://www.w3.org/2000/svg">
<g id="mingcute:background-line" clip-path="url(#clip0_350_7423)">
<g id="Group">
<path id="Vector" d="M22.4451 4.73584C22.633 4.9513 22.7278 5.23255 22.7086 5.51784C22.6894 5.80313 22.5577 6.06913 22.3425 6.25742L5.07636 21.3653C4.97046 21.4633 4.846 21.539 4.71034 21.588C4.57467 21.6371 4.43055 21.6584 4.28651 21.6507C4.14246 21.6431 4.0014 21.6067 3.87168 21.5436C3.74195 21.4805 3.62619 21.3921 3.53123 21.2835C3.43628 21.1749 3.36406 21.0484 3.31885 20.9114C3.27363 20.7744 3.25634 20.6297 3.26799 20.486C3.27964 20.3422 3.32 20.2022 3.38668 20.0743C3.45337 19.9464 3.54501 19.8331 3.65621 19.7412L20.9224 4.63332C21.1379 4.44534 21.4191 4.35055 21.7044 4.36977C21.9897 4.38899 22.2568 4.52065 22.4451 4.73584ZM22.4451 11.6153C22.633 11.8308 22.7278 12.112 22.7086 12.3973C22.6894 12.6826 22.5577 12.9486 22.3425 13.1369L12.9389 21.3664C12.8322 21.4597 12.7082 21.5311 12.5739 21.5765C12.4396 21.6219 12.2977 21.6404 12.1562 21.6309C12.0148 21.6214 11.8766 21.5842 11.7495 21.5213C11.6225 21.4584 11.5091 21.3712 11.4157 21.2644C11.3224 21.1577 11.251 21.0337 11.2057 20.8994C11.1603 20.7651 11.1418 20.6232 11.1513 20.4817C11.1607 20.3403 11.198 20.2021 11.2609 20.075C11.3237 19.948 11.411 19.8346 11.5177 19.7412L20.9213 11.5128C21.0281 11.4194 21.1522 11.348 21.2865 11.3025C21.4209 11.2571 21.5629 11.2387 21.7044 11.2482C21.846 11.2577 21.9842 11.295 22.1113 11.358C22.2384 11.421 22.3518 11.5085 22.4451 11.6153ZM20.9213 17.8527C21.1276 17.6697 21.3961 17.5725 21.6717 17.5812C21.9473 17.5898 22.2092 17.7037 22.4035 17.8994C22.5978 18.0951 22.7098 18.3578 22.7166 18.6334C22.7233 18.9091 22.6242 19.177 22.4397 19.3819L22.3425 19.4779L20.1843 21.3664C19.9777 21.5475 19.7099 21.6429 19.4354 21.6334C19.1609 21.6238 18.9004 21.5099 18.7069 21.315C18.5135 21.12 18.4017 20.8586 18.3942 20.584C18.3868 20.3095 18.4844 20.0424 18.667 19.8373L18.7641 19.7412L20.9213 17.8527ZM14.5836 4.73584C14.7717 4.95116 14.8666 5.23233 14.8476 5.51762C14.8286 5.8029 14.6971 6.06898 14.4821 6.25742L5.07852 14.4869C4.97181 14.5802 4.84776 14.6516 4.71346 14.697C4.57916 14.7424 4.43724 14.7609 4.2958 14.7514C4.15435 14.7419 4.01616 14.7047 3.88911 14.6418C3.76206 14.5789 3.64863 14.4917 3.55532 14.3849C3.462 14.2782 3.39061 14.1542 3.34523 14.0199C3.29985 13.8856 3.28137 13.7437 3.29084 13.6022C3.30031 13.4608 3.33754 13.3226 3.40042 13.1955C3.4633 13.0685 3.55058 12.9551 3.65729 12.8617L13.0609 4.63332C13.2763 4.44534 13.5576 4.35055 13.8429 4.36977C14.1282 4.38899 14.3942 4.52065 14.5825 4.73584H14.5836ZM6.27636 4.63332C6.48291 4.45228 6.75072 4.35682 7.02522 4.36638C7.29971 4.37594 7.56023 4.4898 7.75369 4.68477C7.94714 4.87974 8.05898 5.14114 8.0664 5.4157C8.07382 5.69026 7.97627 5.95732 7.79362 6.16246L7.69758 6.2585L5.07852 8.55167C4.87297 8.73957 4.60273 8.84073 4.32432 8.834C4.0459 8.82727 3.78087 8.71316 3.58465 8.51554C3.38842 8.31792 3.27619 8.05209 3.27143 7.77363C3.26666 7.49518 3.36974 7.22567 3.55909 7.02145L3.65621 6.92541L6.27636 4.63332Z" fill="white"/>
</g>
</g>
<defs>
<clipPath id="clip0_350_7423">
<rect width="25.8993" height="25.8993" fill="white" transform="translate(0.0501709 0.0507812)"/>
</clipPath>
</defs>
</svg>
