<svg width="26" height="28" viewBox="0 0 26 28" fill="none" xmlns="http://www.w3.org/2000/svg">
<g id="tdesign:animation-1" clip-path="url(#clip0_370_6651)">
<path id="Vector" d="M12.3608 0.574707L16.3709 7.2373L23.9464 8.99197L18.8486 14.8625L19.5209 22.6107L12.3608 19.5761L5.2018 22.6096L5.87411 14.8636L0.777344 8.99197L8.35288 7.2373L12.3608 0.574707ZM12.3608 4.76176L9.72986 9.13226L4.75828 10.2848L8.1036 14.1395L7.66116 19.2233L12.3608 17.2323L17.0604 19.2233L16.6191 14.1395L19.9644 10.2848L14.9928 9.13334L12.3608 4.76176ZM22.5619 15.6297L25.2327 18.3006L23.7068 19.8265L21.036 17.1567L22.5619 15.6297ZM13.6094 22.2297L16.2791 24.9006L14.7532 26.4265L12.0824 23.7556L13.6094 22.2297ZM20.7079 22.2297L23.3777 24.9006L21.8518 26.4265L19.1809 23.7556L20.7079 22.2297Z" fill="white"/>
</g>
<defs>
<clipPath id="clip0_370_6651">
<rect width="25.8993" height="26.9784" fill="white" transform="translate(0.0501709 0.510742)"/>
</clipPath>
</defs>
</svg>
